<?xml version="1.0" encoding="utf-8"?>
<!-- Generator: Adobe Illustrator 22.0.0, SVG Export Plug-In . SVG Version: 6.00 Build 0)  -->
<svg version="1.1" id="Layer_1" xmlns="http://www.w3.org/2000/svg" xmlns:xlink="http://www.w3.org/1999/xlink" x="0px" y="0px"
	 viewBox="0 0 25 17" style="enable-background:new 0 0 25 17;" xml:space="preserve">
<style type="text/css">
	.st0{fill:#4D7DFF;}
	.st1{fill:#5180FF;}
	.st2{fill:#5987FF;}
	.st3{fill:#6490FF;}
	.st4{fill:#80A7FF;}
	.st5{fill:#ACCAFF;}
	.st6{fill:#B5D2FF;}
	.st7{fill:#9DBFFF;}
	.st8{fill:#83AAFF;}
	.st9{fill:#78A2FF;}
	.st10{fill:#719BFF;}
	.st11{fill:#6A95FF;}
	.st12{fill:#86ACFF;}
	.st13{fill:#608DFF;}
	.st14{fill:#5383FF;}
	.st15{fill:#4877FF;}
	.st16{fill:#3F70FF;}
	.st17{fill:#3C6DFF;}
	.st18{fill:#3969FF;}
	.st19{fill:#3462FF;}
	.st20{fill:#3766FF;}
	.st21{fill:#4A7AFF;}
	.st22{fill:#6692FF;}
	.st23{fill:#749DFF;}
	.st24{fill:#BED7FF;}
	.st25{fill:#A9C8FF;}
	.st26{fill:#E7F7FF;}
	.st27{fill:#95B8FF;}
	.st28{fill:#B1CEFF;}
	.st29{fill:#8AB0FF;}
	.st30{fill:#4474FF;}
	.st31{fill:#FFFFFF;}
	.st32{fill:#F9FFFF;}
	.st33{fill:#EDFBFF;}
	.st34{fill:#7BA4FF;}
	.st35{fill:#6D98FF;}
	.st36{fill:#4171FF;}
	.st37{fill:#315EFF;}
	.st38{fill:#8DB3FF;}
	.st39{fill:#CEE5FF;}
	.st40{fill:#C8E1FF;}
	.st41{fill:#D5EBFF;}
	.st42{fill:#C1DBFF;}
	.st43{fill:#5D8AFF;}
	.st44{fill:#A5C5FF;}
	.st45{fill:#A0C1FF;}
	.st46{fill:#DBEFFF;}
	.st47{fill:#FDFFFF;}
	.st48{fill:#B8D4FF;}
	.st49{fill:#2751F9;}
	.st50{fill:#5786FF;}
	.st51{fill:#DFF1FF;}
	.st52{fill:#F1FFFF;}
	.st53{fill:#98BCFF;}
	.st54{fill:#E3F5FF;}
	.st55{fill:#D2E7FF;}
	.st56{fill:#92B6FF;}
	.st57{fill:#C5DDFF;}
	.st58{fill:#F5FFFF;}
	.st59{fill:url(#SVGID_1_);}
</style>
<g>
	<g>
		<g>
			<polygon class="st0" points="0,0.9 1,0.9 0.4,0 0,0 			"/>
			<polygon class="st1" points="1.6,0 0.4,0 1,0.9 2.3,0.9 			"/>
			<polygon class="st2" points="2.8,0 1.6,0 2.3,0.9 3.5,0.9 			"/>
			<polygon class="st3" points="4.1,0 2.8,0 3.5,0.9 4.7,0.9 			"/>
			<polygon class="st4" points="5.3,0 4.1,0 4.7,0.9 5.9,0.9 			"/>
			<polygon class="st5" points="6.5,0 5.3,0 5.9,0.9 7.2,0.9 			"/>
			<polygon class="st6" points="7.7,0 6.5,0 7.2,0.9 8.4,0.9 			"/>
			<polygon class="st7" points="9,0 7.7,0 8.4,0.9 9.6,0.9 			"/>
			<polygon class="st8" points="10.2,0 9,0 9.6,0.9 10.8,0.9 			"/>
			<polygon class="st9" points="11.4,0 10.2,0 10.8,0.9 12.1,0.9 			"/>
			<polygon class="st10" points="12.6,0 11.4,0 12.1,0.9 13.3,0.9 			"/>
			<polygon class="st11" points="13.9,0 12.6,0 13.3,0.9 14.5,0.9 			"/>
			<polygon class="st12" points="15.1,0 13.9,0 14.5,0.9 15.7,0.9 			"/>
			<polygon class="st13" points="16.3,0 15.1,0 15.7,0.9 17,0.9 			"/>
			<polygon class="st14" points="17.5,0 16.3,0 17,0.9 18.2,0.9 			"/>
			<polygon class="st15" points="18.8,0 17.5,0 18.2,0.9 19.4,0.9 			"/>
			<polygon class="st1" points="20,0 18.8,0 19.4,0.9 20.6,0.9 			"/>
			<polygon class="st16" points="21.2,0 20,0 20.6,0.9 21.9,0.9 			"/>
			<polygon class="st17" points="22.4,0 21.2,0 21.9,0.9 23.1,0.9 			"/>
			<polygon class="st0" points="23.7,0 22.4,0 23.1,0.9 24.3,0.9 			"/>
			<polygon class="st18" points="24.3,0.9 25,0.9 25,0.2 24.9,0 23.7,0 			"/>
			<polygon class="st19" points="0,1.9 0.5,1.9 0,1.2 			"/>
			<polygon class="st20" points="0,1.2 0.5,1.9 1.7,1.9 1,0.9 0,0.9 			"/>
			<polygon class="st20" points="2.3,0.9 1,0.9 1.7,1.9 2.9,1.9 			"/>
			<polygon class="st21" points="3.5,0.9 2.3,0.9 2.9,1.9 4.2,1.9 			"/>
			<polygon class="st22" points="4.7,0.9 3.5,0.9 4.2,1.9 5.4,1.9 			"/>
			<polygon class="st23" points="5.9,0.9 4.7,0.9 5.4,1.9 6.6,1.9 			"/>
			<polygon class="st7" points="7.2,0.9 5.9,0.9 6.6,1.9 7.8,1.9 			"/>
			<polygon class="st24" points="8.4,0.9 7.2,0.9 7.8,1.9 9.1,1.9 			"/>
			<polygon class="st25" points="9.6,0.9 8.4,0.9 9.1,1.9 10.3,1.9 			"/>
			<polygon class="st26" points="10.8,0.9 9.6,0.9 10.3,1.9 11.5,1.9 			"/>
			<polygon class="st4" points="12.1,0.9 10.8,0.9 11.5,1.9 12.7,1.9 			"/>
			<polygon class="st12" points="13.3,0.9 12.1,0.9 12.7,1.9 14,1.9 			"/>
			<polygon class="st27" points="14.5,0.9 13.3,0.9 14,1.9 15.2,1.9 			"/>
			<polygon class="st28" points="15.7,0.9 14.5,0.9 15.2,1.9 16.4,1.9 			"/>
			<polygon class="st23" points="17,0.9 15.7,0.9 16.4,1.9 17.6,1.9 			"/>
			<polygon class="st4" points="18.2,0.9 17,0.9 17.6,1.9 18.9,1.9 			"/>
			<polygon class="st22" points="19.4,0.9 18.2,0.9 18.9,1.9 20.1,1.9 			"/>
			<polygon class="st25" points="20.6,0.9 19.4,0.9 20.1,1.9 21.3,1.9 			"/>
			<polygon class="st10" points="21.9,0.9 20.6,0.9 21.3,1.9 22.5,1.9 			"/>
			<polygon class="st29" points="23.1,0.9 21.9,0.9 22.5,1.9 23.8,1.9 			"/>
			<polygon class="st30" points="24.3,0.9 23.1,0.9 23.8,1.9 25,1.9 			"/>
			<polygon class="st20" points="25,0.9 24.3,0.9 25,1.9 25,1.9 			"/>
			<polygon class="st19" points="0,2.8 1.1,2.8 0.5,1.9 0,1.9 			"/>
			<polygon class="st16" points="1.7,1.9 0.5,1.9 1.1,2.8 2.4,2.8 			"/>
			<polygon class="st1" points="2.9,1.9 1.7,1.9 2.4,2.8 3.6,2.8 			"/>
			<polygon class="st21" points="4.2,1.9 2.9,1.9 3.6,2.8 4.8,2.8 			"/>
			<polygon class="st1" points="5.4,1.9 4.2,1.9 4.8,2.8 6,2.8 			"/>
			<polygon class="st2" points="6.6,1.9 5.4,1.9 6,2.8 7.3,2.8 			"/>
			<polygon class="st4" points="7.8,1.9 6.6,1.9 7.3,2.8 8.5,2.8 			"/>
			<polygon class="st26" points="9.1,1.9 7.8,1.9 8.5,2.8 9.7,2.8 			"/>
			<polygon class="st25" points="10.3,1.9 9.1,1.9 9.7,2.8 10.9,2.8 			"/>
			<polygon class="st31" points="11.5,1.9 10.3,1.9 10.9,2.8 12.2,2.8 			"/>
			<polygon class="st28" points="12.7,1.9 11.5,1.9 12.2,2.8 13.4,2.8 			"/>
			<polygon class="st31" points="14,1.9 12.7,1.9 13.4,2.8 14.6,2.8 			"/>
			<polygon class="st32" points="15.2,1.9 14,1.9 14.6,2.8 15.8,2.8 			"/>
			<polygon class="st33" points="16.4,1.9 15.2,1.9 15.8,2.8 17.1,2.8 			"/>
			<polygon class="st29" points="17.6,1.9 16.4,1.9 17.1,2.8 18.3,2.8 			"/>
			<polygon class="st34" points="18.9,1.9 17.6,1.9 18.3,2.8 19.5,2.8 			"/>
			<polygon class="st34" points="20.1,1.9 18.9,1.9 19.5,2.8 20.7,2.8 			"/>
			<polygon class="st11" points="21.3,1.9 20.1,1.9 20.7,2.8 22,2.8 			"/>
			<polygon class="st3" points="22.5,1.9 21.3,1.9 22,2.8 23.2,2.8 			"/>
			<polygon class="st35" points="23.8,1.9 22.5,1.9 23.2,2.8 24.4,2.8 			"/>
			<polygon class="st36" points="24.4,2.8 25,2.8 25,1.9 25,1.9 23.8,1.9 			"/>
			<polygon class="st37" points="0,3.8 0.6,3.8 0,3 			"/>
			<polygon class="st16" points="0,3 0.6,3.8 1.8,3.8 1.1,2.8 0,2.8 			"/>
			<polygon class="st17" points="2.4,2.8 1.1,2.8 1.8,3.8 3,3.8 			"/>
			<polygon class="st30" points="3.6,2.8 2.4,2.8 3,3.8 4.3,3.8 			"/>
			<polygon class="st36" points="4.8,2.8 3.6,2.8 4.3,3.8 5.5,3.8 			"/>
			<polygon class="st11" points="6,2.8 4.8,2.8 5.5,3.8 6.7,3.8 			"/>
			<polygon class="st38" points="7.3,2.8 6,2.8 6.7,3.8 7.9,3.8 			"/>
			<polygon class="st4" points="8.5,2.8 7.3,2.8 7.9,3.8 9.2,3.8 			"/>
			<polygon class="st39" points="9.7,2.8 8.5,2.8 9.2,3.8 10.4,3.8 			"/>
			<polygon class="st40" points="10.9,2.8 9.7,2.8 10.4,3.8 11.6,3.8 			"/>
			<polygon class="st6" points="12.2,2.8 10.9,2.8 11.6,3.8 12.8,3.8 			"/>
			<polygon class="st26" points="13.4,2.8 12.2,2.8 12.8,3.8 14.1,3.8 			"/>
			<polygon class="st33" points="14.6,2.8 13.4,2.8 14.1,3.8 15.3,3.8 			"/>
			<polygon class="st31" points="15.8,2.8 14.6,2.8 15.3,3.8 16.5,3.8 			"/>
			<polygon class="st41" points="17.1,2.8 15.8,2.8 16.5,3.8 17.7,3.8 			"/>
			<polygon class="st42" points="18.3,2.8 17.1,2.8 17.7,3.8 19,3.8 			"/>
			<polygon class="st43" points="19.5,2.8 18.3,2.8 19,3.8 20.2,3.8 			"/>
			<polygon class="st25" points="20.7,2.8 19.5,2.8 20.2,3.8 21.4,3.8 			"/>
			<polygon class="st41" points="22,2.8 20.7,2.8 21.4,3.8 22.6,3.8 			"/>
			<polygon class="st44" points="23.2,2.8 22,2.8 22.6,3.8 23.9,3.8 			"/>
			<polygon class="st11" points="23.9,3.8 25,3.8 25,3.7 24.4,2.8 23.2,2.8 			"/>
			<polygon class="st15" points="25,3.7 25,2.8 24.4,2.8 			"/>
			<polygon class="st37" points="0,4.7 0,4.7 1.2,4.7 0.6,3.8 0,3.8 			"/>
			<polygon class="st19" points="1.8,3.8 0.6,3.8 1.2,4.7 2.5,4.7 			"/>
			<polygon class="st19" points="3,3.8 1.8,3.8 2.5,4.7 3.7,4.7 			"/>
			<polygon class="st1" points="4.3,3.8 3,3.8 3.7,4.7 4.9,4.7 			"/>
			<polygon class="st2" points="5.5,3.8 4.3,3.8 4.9,4.7 6.1,4.7 			"/>
			<polygon class="st7" points="6.7,3.8 5.5,3.8 6.1,4.7 7.4,4.7 			"/>
			<polygon class="st44" points="7.9,3.8 6.7,3.8 7.4,4.7 8.6,4.7 			"/>
			<polygon class="st12" points="9.2,3.8 7.9,3.8 8.6,4.7 9.8,4.7 			"/>
			<polygon class="st45" points="10.4,3.8 9.2,3.8 9.8,4.7 11,4.7 			"/>
			<polygon class="st7" points="11.6,3.8 10.4,3.8 11,4.7 12.3,4.7 			"/>
			<polygon class="st6" points="12.8,3.8 11.6,3.8 12.3,4.7 13.5,4.7 			"/>
			<polygon class="st40" points="14.1,3.8 12.8,3.8 13.5,4.7 14.7,4.7 			"/>
			<polygon class="st46" points="15.3,3.8 14.1,3.8 14.7,4.7 15.9,4.7 			"/>
			<polygon class="st47" points="16.5,3.8 15.3,3.8 15.9,4.7 17.2,4.7 			"/>
			<polygon class="st31" points="17.7,3.8 16.5,3.8 17.2,4.7 18.4,4.7 			"/>
			<polygon class="st25" points="19,3.8 17.7,3.8 18.4,4.7 19.6,4.7 			"/>
			<polygon class="st8" points="20.2,3.8 19,3.8 19.6,4.7 20.8,4.7 			"/>
			<polygon class="st48" points="21.4,3.8 20.2,3.8 20.8,4.7 22.1,4.7 			"/>
			<polygon class="st32" points="22.6,3.8 21.4,3.8 22.1,4.7 23.3,4.7 			"/>
			<polygon class="st31" points="23.9,3.8 22.6,3.8 23.3,4.7 24.5,4.7 			"/>
			<polygon class="st39" points="25,3.8 23.9,3.8 24.5,4.7 25,4.7 			"/>
			<polygon class="st49" points="0,5.7 0.7,5.7 0,4.7 0,4.7 			"/>
			<polygon class="st17" points="1.2,4.7 0,4.7 0.7,5.7 1.9,5.7 			"/>
			<polygon class="st30" points="2.5,4.7 1.2,4.7 1.9,5.7 3.1,5.7 			"/>
			<polygon class="st21" points="3.7,4.7 2.5,4.7 3.1,5.7 4.4,5.7 			"/>
			<polygon class="st22" points="4.9,4.7 3.7,4.7 4.4,5.7 5.6,5.7 			"/>
			<polygon class="st50" points="6.1,4.7 4.9,4.7 5.6,5.7 6.8,5.7 			"/>
			<polygon class="st13" points="7.4,4.7 6.1,4.7 6.8,5.7 8,5.7 			"/>
			<polygon class="st8" points="8.6,4.7 7.4,4.7 8,5.7 9.2,5.7 			"/>
			<polygon class="st12" points="9.8,4.7 8.6,4.7 9.2,5.7 10.5,5.7 			"/>
			<polygon class="st5" points="11,4.7 9.8,4.7 10.5,5.7 11.7,5.7 			"/>
			<polygon class="st41" points="12.3,4.7 11,4.7 11.7,5.7 12.9,5.7 			"/>
			<polygon class="st38" points="13.5,4.7 12.3,4.7 12.9,5.7 14.1,5.7 			"/>
			<polygon class="st51" points="14.7,4.7 13.5,4.7 14.1,5.7 15.4,5.7 			"/>
			<polygon class="st51" points="15.9,4.7 14.7,4.7 15.4,5.7 16.6,5.7 			"/>
			<polygon class="st31" points="17.2,4.7 15.9,4.7 16.6,5.7 17.8,5.7 			"/>
			<polygon class="st52" points="18.4,4.7 17.2,4.7 17.8,5.7 19,5.7 			"/>
			<polygon class="st47" points="19.6,4.7 18.4,4.7 19,5.7 20.3,5.7 			"/>
			<polygon class="st51" points="20.8,4.7 19.6,4.7 20.3,5.7 21.5,5.7 			"/>
			<polygon class="st26" points="22.1,4.7 20.8,4.7 21.5,5.7 22.7,5.7 			"/>
			<polygon class="st31" points="23.3,4.7 22.1,4.7 22.7,5.7 23.9,5.7 			"/>
			<polygon class="st33" points="23.9,5.7 25,5.7 25,5.4 24.5,4.7 23.3,4.7 			"/>
			<polygon class="st31" points="25,5.4 25,4.7 24.5,4.7 			"/>
			<polygon class="st15" points="0,6.6 0.1,6.6 0,6.5 			"/>
			<polygon class="st15" points="0,6.5 0.1,6.6 1.3,6.6 0.7,5.7 0,5.7 			"/>
			<polygon class="st16" points="1.9,5.7 0.7,5.7 1.3,6.6 2.6,6.6 			"/>
			<polygon class="st36" points="3.1,5.7 1.9,5.7 2.6,6.6 3.8,6.6 			"/>
			<polygon class="st0" points="4.4,5.7 3.1,5.7 3.8,6.6 5,6.6 			"/>
			<polygon class="st13" points="5.6,5.7 4.4,5.7 5,6.6 6.2,6.6 			"/>
			<polygon class="st50" points="6.8,5.7 5.6,5.7 6.2,6.6 7.5,6.6 			"/>
			<polygon class="st8" points="8,5.7 6.8,5.7 7.5,6.6 8.7,6.6 			"/>
			<polygon class="st29" points="9.2,5.7 8,5.7 8.7,6.6 9.9,6.6 			"/>
			<polygon class="st10" points="10.5,5.7 9.2,5.7 9.9,6.6 11.1,6.6 			"/>
			<polygon class="st53" points="11.7,5.7 10.5,5.7 11.1,6.6 12.4,6.6 			"/>
			<polygon class="st42" points="12.9,5.7 11.7,5.7 12.4,6.6 13.6,6.6 			"/>
			<polygon class="st24" points="14.1,5.7 12.9,5.7 13.6,6.6 14.8,6.6 			"/>
			<polygon class="st42" points="15.4,5.7 14.1,5.7 14.8,6.6 16,6.6 			"/>
			<polygon class="st31" points="16.6,5.7 15.4,5.7 16,6.6 17.3,6.6 			"/>
			<polygon class="st41" points="17.8,5.7 16.6,5.7 17.3,6.6 18.5,6.6 			"/>
			<polygon class="st31" points="19,5.7 17.8,5.7 18.5,6.6 19.7,6.6 			"/>
			<polygon class="st31" points="20.3,5.7 19,5.7 19.7,6.6 20.9,6.6 			"/>
			<polygon class="st33" points="21.5,5.7 20.3,5.7 20.9,6.6 22.2,6.6 			"/>
			<polygon class="st31" points="22.7,5.7 21.5,5.7 22.2,6.6 23.4,6.6 			"/>
			<polygon class="st31" points="23.9,5.7 22.7,5.7 23.4,6.6 24.6,6.6 			"/>
			<polygon class="st54" points="25,5.7 23.9,5.7 24.6,6.6 25,6.6 			"/>
			<polygon class="st1" points="0,7.6 0.8,7.6 0.1,6.6 0,6.6 			"/>
			<polygon class="st36" points="1.3,6.6 0.1,6.6 0.8,7.6 2,7.6 			"/>
			<polygon class="st0" points="2.6,6.6 1.3,6.6 2,7.6 3.2,7.6 			"/>
			<polygon class="st1" points="3.8,6.6 2.6,6.6 3.2,7.6 4.4,7.6 			"/>
			<polygon class="st11" points="5,6.6 3.8,6.6 4.4,7.6 5.7,7.6 			"/>
			<polygon class="st34" points="6.2,6.6 5,6.6 5.7,7.6 6.9,7.6 			"/>
			<polygon class="st2" points="7.5,6.6 6.2,6.6 6.9,7.6 8.1,7.6 			"/>
			<polygon class="st4" points="8.7,6.6 7.5,6.6 8.1,7.6 9.3,7.6 			"/>
			<polygon class="st45" points="9.9,6.6 8.7,6.6 9.3,7.6 10.6,7.6 			"/>
			<polygon class="st8" points="11.1,6.6 9.9,6.6 10.6,7.6 11.8,7.6 			"/>
			<polygon class="st6" points="12.4,6.6 11.1,6.6 11.8,7.6 13,7.6 			"/>
			<polygon class="st55" points="13.6,6.6 12.4,6.6 13,7.6 14.2,7.6 			"/>
			<polygon class="st45" points="14.8,6.6 13.6,6.6 14.2,7.6 15.5,7.6 			"/>
			<polygon class="st54" points="16,6.6 14.8,6.6 15.5,7.6 16.7,7.6 			"/>
			<polygon class="st31" points="17.3,6.6 16,6.6 16.7,7.6 17.9,7.6 			"/>
			<polygon class="st31" points="18.5,6.6 17.3,6.6 17.9,7.6 19.1,7.6 			"/>
			<polygon class="st31" points="19.7,6.6 18.5,6.6 19.1,7.6 20.4,7.6 			"/>
			<polygon class="st31" points="20.9,6.6 19.7,6.6 20.4,7.6 21.6,7.6 			"/>
			<polygon class="st31" points="22.2,6.6 20.9,6.6 21.6,7.6 22.8,7.6 			"/>
			<polygon class="st31" points="23.4,6.6 22.2,6.6 22.8,7.6 24,7.6 			"/>
			<polygon class="st31" points="24,7.6 25,7.6 25,7.2 24.6,6.6 23.4,6.6 			"/>
			<polygon class="st31" points="25,7.2 25,6.6 24.6,6.6 			"/>
			<polygon class="st15" points="0,8.5 0.2,8.5 0,8.2 			"/>
			<polygon class="st15" points="0,8.2 0.2,8.5 1.4,8.5 0.8,7.6 0,7.6 			"/>
			<polygon class="st13" points="2,7.6 0.8,7.6 1.4,8.5 2.7,8.5 			"/>
			<polygon class="st15" points="3.2,7.6 2,7.6 2.7,8.5 3.9,8.5 			"/>
			<polygon class="st43" points="4.4,7.6 3.2,7.6 3.9,8.5 5.1,8.5 			"/>
			<polygon class="st13" points="5.7,7.6 4.4,7.6 5.1,8.5 6.3,8.5 			"/>
			<polygon class="st34" points="6.9,7.6 5.7,7.6 6.3,8.5 7.6,8.5 			"/>
			<polygon class="st34" points="8.1,7.6 6.9,7.6 7.6,8.5 8.8,8.5 			"/>
			<polygon class="st53" points="9.3,7.6 8.1,7.6 8.8,8.5 10,8.5 			"/>
			<polygon class="st11" points="10.6,7.6 9.3,7.6 10,8.5 11.2,8.5 			"/>
			<polygon class="st29" points="11.8,7.6 10.6,7.6 11.2,8.5 12.5,8.5 			"/>
			<polygon class="st40" points="13,7.6 11.8,7.6 12.5,8.5 13.7,8.5 			"/>
			<polygon class="st39" points="14.2,7.6 13,7.6 13.7,8.5 14.9,8.5 			"/>
			<polygon class="st31" points="15.5,7.6 14.2,7.6 14.9,8.5 16.1,8.5 			"/>
			<polygon class="st32" points="16.7,7.6 15.5,7.6 16.1,8.5 17.4,8.5 			"/>
			<polygon class="st31" points="17.9,7.6 16.7,7.6 17.4,8.5 18.6,8.5 			"/>
			<polygon class="st47" points="19.1,7.6 17.9,7.6 18.6,8.5 19.8,8.5 			"/>
			<polygon class="st31" points="20.4,7.6 19.1,7.6 19.8,8.5 21,8.5 			"/>
			<polygon class="st31" points="21.6,7.6 20.4,7.6 21,8.5 22.3,8.5 			"/>
			<polygon class="st31" points="22.8,7.6 21.6,7.6 22.3,8.5 23.5,8.5 			"/>
			<polygon class="st31" points="24,7.6 22.8,7.6 23.5,8.5 24.7,8.5 			"/>
			<polygon class="st31" points="25,7.6 24,7.6 24.7,8.5 25,8.5 			"/>
			<polygon class="st43" points="0,9.4 0.9,9.4 0.2,8.5 0,8.5 			"/>
			<polygon class="st13" points="1.4,8.5 0.2,8.5 0.9,9.4 2.1,9.4 			"/>
			<polygon class="st21" points="2.7,8.5 1.4,8.5 2.1,9.4 3.3,9.4 			"/>
			<polygon class="st50" points="3.9,8.5 2.7,8.5 3.3,9.4 4.5,9.4 			"/>
			<polygon class="st2" points="5.1,8.5 3.9,8.5 4.5,9.4 5.8,9.4 			"/>
			<polygon class="st45" points="6.3,8.5 5.1,8.5 5.8,9.4 7,9.4 			"/>
			<polygon class="st38" points="7.6,8.5 6.3,8.5 7,9.4 8.2,9.4 			"/>
			<polygon class="st10" points="8.8,8.5 7.6,8.5 8.2,9.4 9.4,9.4 			"/>
			<polygon class="st56" points="10,8.5 8.8,8.5 9.4,9.4 10.7,9.4 			"/>
			<polygon class="st23" points="11.2,8.5 10,8.5 10.7,9.4 11.9,9.4 			"/>
			<polygon class="st38" points="12.5,8.5 11.2,8.5 11.9,9.4 13.1,9.4 			"/>
			<polygon class="st40" points="13.7,8.5 12.5,8.5 13.1,9.4 14.3,9.4 			"/>
			<polygon class="st41" points="14.9,8.5 13.7,8.5 14.3,9.4 15.6,9.4 			"/>
			<polygon class="st54" points="16.1,8.5 14.9,8.5 15.6,9.4 16.8,9.4 			"/>
			<polygon class="st56" points="17.4,8.5 16.1,8.5 16.8,9.4 18,9.4 			"/>
			<polygon class="st31" points="18.6,8.5 17.4,8.5 18,9.4 19.2,9.4 			"/>
			<polygon class="st31" points="19.8,8.5 18.6,8.5 19.2,9.4 20.5,9.4 			"/>
			<polygon class="st31" points="21,8.5 19.8,8.5 20.5,9.4 21.7,9.4 			"/>
			<polygon class="st31" points="22.3,8.5 21,8.5 21.7,9.4 22.9,9.4 			"/>
			<polygon class="st31" points="23.5,8.5 22.3,8.5 22.9,9.4 24.1,9.4 			"/>
			<polygon class="st31" points="24.1,9.4 25,9.4 25,8.9 24.7,8.5 23.5,8.5 			"/>
			<polygon class="st31" points="25,8.9 25,8.5 24.7,8.5 			"/>
			<polygon class="st36" points="0,10.4 0.3,10.4 0,9.9 			"/>
			<polygon class="st50" points="0,9.9 0.3,10.4 1.5,10.4 0.9,9.4 0,9.4 			"/>
			<polygon class="st22" points="2.1,9.4 0.9,9.4 1.5,10.4 2.8,10.4 			"/>
			<polygon class="st3" points="3.3,9.4 2.1,9.4 2.8,10.4 4,10.4 			"/>
			<polygon class="st15" points="4.5,9.4 3.3,9.4 4,10.4 5.2,10.4 			"/>
			<polygon class="st13" points="5.8,9.4 4.5,9.4 5.2,10.4 6.4,10.4 			"/>
			<polygon class="st11" points="7,9.4 5.8,9.4 6.4,10.4 7.7,10.4 			"/>
			<polygon class="st12" points="8.2,9.4 7,9.4 7.7,10.4 8.9,10.4 			"/>
			<polygon class="st56" points="9.4,9.4 8.2,9.4 8.9,10.4 10.1,10.4 			"/>
			<polygon class="st5" points="10.7,9.4 9.4,9.4 10.1,10.4 11.3,10.4 			"/>
			<polygon class="st23" points="11.9,9.4 10.7,9.4 11.3,10.4 12.6,10.4 			"/>
			<polygon class="st45" points="13.1,9.4 11.9,9.4 12.6,10.4 13.8,10.4 			"/>
			<polygon class="st42" points="14.3,9.4 13.1,9.4 13.8,10.4 15,10.4 			"/>
			<polygon class="st46" points="15.6,9.4 14.3,9.4 15,10.4 16.2,10.4 			"/>
			<polygon class="st41" points="16.8,9.4 15.6,9.4 16.2,10.4 17.5,10.4 			"/>
			<polygon class="st41" points="18,9.4 16.8,9.4 17.5,10.4 18.7,10.4 			"/>
			<polygon class="st31" points="19.2,9.4 18,9.4 18.7,10.4 19.9,10.4 			"/>
			<polygon class="st31" points="20.5,9.4 19.2,9.4 19.9,10.4 21.1,10.4 			"/>
			<polygon class="st31" points="21.7,9.4 20.5,9.4 21.1,10.4 22.4,10.4 			"/>
			<polygon class="st31" points="22.9,9.4 21.7,9.4 22.4,10.4 23.6,10.4 			"/>
			<polygon class="st31" points="24.1,9.4 22.9,9.4 23.6,10.4 24.8,10.4 			"/>
			<polygon class="st31" points="25,9.4 24.1,9.4 24.8,10.4 25,10.4 			"/>
			<polygon class="st15" points="0,11.3 1,11.3 0.3,10.4 0,10.4 			"/>
			<polygon class="st50" points="1.5,10.4 0.3,10.4 1,11.3 2.2,11.3 			"/>
			<polygon class="st13" points="2.8,10.4 1.5,10.4 2.2,11.3 3.4,11.3 			"/>
			<polygon class="st43" points="4,10.4 2.8,10.4 3.4,11.3 4.6,11.3 			"/>
			<polygon class="st43" points="5.2,10.4 4,10.4 4.6,11.3 5.9,11.3 			"/>
			<polygon class="st12" points="6.4,10.4 5.2,10.4 5.9,11.3 7.1,11.3 			"/>
			<polygon class="st35" points="7.7,10.4 6.4,10.4 7.1,11.3 8.3,11.3 			"/>
			<polygon class="st46" points="8.9,10.4 7.7,10.4 8.3,11.3 9.5,11.3 			"/>
			<polygon class="st5" points="10.1,10.4 8.9,10.4 9.5,11.3 10.8,11.3 			"/>
			<polygon class="st53" points="11.3,10.4 10.1,10.4 10.8,11.3 12,11.3 			"/>
			<polygon class="st48" points="12.6,10.4 11.3,10.4 12,11.3 13.2,11.3 			"/>
			<polygon class="st24" points="13.8,10.4 12.6,10.4 13.2,11.3 14.4,11.3 			"/>
			<polygon class="st48" points="15,10.4 13.8,10.4 14.4,11.3 15.7,11.3 			"/>
			<polygon class="st48" points="16.2,10.4 15,10.4 15.7,11.3 16.9,11.3 			"/>
			<polygon class="st31" points="17.5,10.4 16.2,10.4 16.9,11.3 18.1,11.3 			"/>
			<polygon class="st55" points="18.7,10.4 17.5,10.4 18.1,11.3 19.3,11.3 			"/>
			<polygon class="st31" points="19.9,10.4 18.7,10.4 19.3,11.3 20.6,11.3 			"/>
			<polygon class="st31" points="21.1,10.4 19.9,10.4 20.6,11.3 21.8,11.3 			"/>
			<polygon class="st31" points="22.4,10.4 21.1,10.4 21.8,11.3 23,11.3 			"/>
			<polygon class="st31" points="23.6,10.4 22.4,10.4 23,11.3 24.2,11.3 			"/>
			<polygon class="st31" points="24.2,11.3 25,11.3 25,10.7 24.8,10.4 23.6,10.4 			"/>
			<polygon class="st31" points="25,10.7 25,10.4 24.8,10.4 			"/>
			<polygon class="st14" points="0,12.3 0.4,12.3 0,11.7 			"/>
			<polygon class="st15" points="0,11.7 0.4,12.3 1.6,12.3 1,11.3 0,11.3 			"/>
			<polygon class="st14" points="2.2,11.3 1,11.3 1.6,12.3 2.9,12.3 			"/>
			<polygon class="st11" points="3.4,11.3 2.2,11.3 2.9,12.3 4.1,12.3 			"/>
			<polygon class="st22" points="4.6,11.3 3.4,11.3 4.1,12.3 5.3,12.3 			"/>
			<polygon class="st13" points="5.9,11.3 4.6,11.3 5.3,12.3 6.5,12.3 			"/>
			<polygon class="st13" points="7.1,11.3 5.9,11.3 6.5,12.3 7.8,12.3 			"/>
			<polygon class="st38" points="8.3,11.3 7.1,11.3 7.8,12.3 9,12.3 			"/>
			<polygon class="st31" points="9.5,11.3 8.3,11.3 9,12.3 10.2,12.3 			"/>
			<polygon class="st45" points="10.8,11.3 9.5,11.3 10.2,12.3 11.4,12.3 			"/>
			<polygon class="st6" points="12,11.3 10.8,11.3 11.4,12.3 12.7,12.3 			"/>
			<polygon class="st53" points="13.2,11.3 12,11.3 12.7,12.3 13.9,12.3 			"/>
			<polygon class="st41" points="14.4,11.3 13.2,11.3 13.9,12.3 15.1,12.3 			"/>
			<polygon class="st57" points="15.7,11.3 14.4,11.3 15.1,12.3 16.3,12.3 			"/>
			<polygon class="st24" points="16.9,11.3 15.7,11.3 16.3,12.3 17.6,12.3 			"/>
			<polygon class="st54" points="18.1,11.3 16.9,11.3 17.6,12.3 18.8,12.3 			"/>
			<polygon class="st31" points="19.3,11.3 18.1,11.3 18.8,12.3 20,12.3 			"/>
			<polygon class="st31" points="20.6,11.3 19.3,11.3 20,12.3 21.2,12.3 			"/>
			<polygon class="st31" points="21.8,11.3 20.6,11.3 21.2,12.3 22.5,12.3 			"/>
			<polygon class="st31" points="23,11.3 21.8,11.3 22.5,12.3 23.7,12.3 			"/>
			<polygon class="st31" points="24.2,11.3 23,11.3 23.7,12.3 24.9,12.3 			"/>
			<polygon class="st31" points="25,11.3 24.2,11.3 24.9,12.3 25,12.3 			"/>
			<polygon class="st50" points="0,13.2 1.1,13.2 0.4,12.3 0,12.3 			"/>
			<polygon class="st21" points="1.6,12.3 0.4,12.3 1.1,13.2 2.3,13.2 			"/>
			<polygon class="st21" points="2.9,12.3 1.6,12.3 2.3,13.2 3.5,13.2 			"/>
			<polygon class="st2" points="4.1,12.3 2.9,12.3 3.5,13.2 4.7,13.2 			"/>
			<polygon class="st23" points="5.3,12.3 4.1,12.3 4.7,13.2 6,13.2 			"/>
			<polygon class="st10" points="6.5,12.3 5.3,12.3 6,13.2 7.2,13.2 			"/>
			<polygon class="st28" points="7.8,12.3 6.5,12.3 7.2,13.2 8.4,13.2 			"/>
			<polygon class="st28" points="9,12.3 7.8,12.3 8.4,13.2 9.6,13.2 			"/>
			<polygon class="st5" points="10.2,12.3 9,12.3 9.6,13.2 10.9,13.2 			"/>
			<polygon class="st39" points="11.4,12.3 10.2,12.3 10.9,13.2 12.1,13.2 			"/>
			<polygon class="st52" points="12.7,12.3 11.4,12.3 12.1,13.2 13.3,13.2 			"/>
			<polygon class="st33" points="13.9,12.3 12.7,12.3 13.3,13.2 14.5,13.2 			"/>
			<polygon class="st47" points="15.1,12.3 13.9,12.3 14.5,13.2 15.8,13.2 			"/>
			<polygon class="st42" points="16.3,12.3 15.1,12.3 15.8,13.2 17,13.2 			"/>
			<polygon class="st46" points="17.6,12.3 16.3,12.3 17,13.2 18.2,13.2 			"/>
			<polygon class="st26" points="18.8,12.3 17.6,12.3 18.2,13.2 19.4,13.2 			"/>
			<polygon class="st31" points="20,12.3 18.8,12.3 19.4,13.2 20.7,13.2 			"/>
			<polygon class="st31" points="21.2,12.3 20,12.3 20.7,13.2 21.9,13.2 			"/>
			<polygon class="st31" points="22.5,12.3 21.2,12.3 21.9,13.2 23.1,13.2 			"/>
			<polygon class="st31" points="23.7,12.3 22.5,12.3 23.1,13.2 24.3,13.2 			"/>
			<polygon class="st31" points="24.3,13.2 25,13.2 25,12.4 24.9,12.3 23.7,12.3 			"/>
			<polygon class="st31" points="25,12.4 25,12.3 24.9,12.3 			"/>
			<polygon class="st21" points="0,14.2 0.5,14.2 0,13.4 			"/>
			<polygon class="st14" points="0,13.4 0.5,14.2 1.7,14.2 1.1,13.2 0,13.2 			"/>
			<polygon class="st21" points="2.3,13.2 1.1,13.2 1.7,14.2 3,14.2 			"/>
			<polygon class="st17" points="3.5,13.2 2.3,13.2 3,14.2 4.2,14.2 			"/>
			<polygon class="st43" points="4.7,13.2 3.5,13.2 4.2,14.2 5.4,14.2 			"/>
			<polygon class="st8" points="6,13.2 4.7,13.2 5.4,14.2 6.6,14.2 			"/>
			<polygon class="st45" points="7.2,13.2 6,13.2 6.6,14.2 7.9,14.2 			"/>
			<polygon class="st55" points="8.4,13.2 7.2,13.2 7.9,14.2 9.1,14.2 			"/>
			<polygon class="st55" points="9.6,13.2 8.4,13.2 9.1,14.2 10.3,14.2 			"/>
			<polygon class="st57" points="10.9,13.2 9.6,13.2 10.3,14.2 11.5,14.2 			"/>
			<polygon class="st31" points="12.1,13.2 10.9,13.2 11.5,14.2 12.8,14.2 			"/>
			<polygon class="st28" points="13.3,13.2 12.1,13.2 12.8,14.2 14,14.2 			"/>
			<polygon class="st31" points="14.5,13.2 13.3,13.2 14,14.2 15.2,14.2 			"/>
			<polygon class="st31" points="15.8,13.2 14.5,13.2 15.2,14.2 16.4,14.2 			"/>
			<polygon class="st31" points="17,13.2 15.8,13.2 16.4,14.2 17.7,14.2 			"/>
			<polygon class="st31" points="18.2,13.2 17,13.2 17.7,14.2 18.9,14.2 			"/>
			<polygon class="st31" points="19.4,13.2 18.2,13.2 18.9,14.2 20.1,14.2 			"/>
			<polygon class="st31" points="20.7,13.2 19.4,13.2 20.1,14.2 21.3,14.2 			"/>
			<polygon class="st31" points="21.9,13.2 20.7,13.2 21.3,14.2 22.6,14.2 			"/>
			<polygon class="st31" points="23.1,13.2 21.9,13.2 22.6,14.2 23.8,14.2 			"/>
			<polygon class="st31" points="23.8,14.2 25,14.2 25,14.2 24.3,13.2 23.1,13.2 			"/>
			<polygon class="st31" points="25,14.2 25,13.2 24.3,13.2 			"/>
			<polygon class="st23" points="0,15.1 1.2,15.1 0.5,14.2 0,14.2 			"/>
			<polygon class="st50" points="1.7,14.2 0.5,14.2 1.2,15.1 2.4,15.1 			"/>
			<polygon class="st15" points="3,14.2 1.7,14.2 2.4,15.1 3.6,15.1 			"/>
			<polygon class="st20" points="4.2,14.2 3,14.2 3.6,15.1 4.8,15.1 			"/>
			<polygon class="st50" points="5.4,14.2 4.2,14.2 4.8,15.1 6.1,15.1 			"/>
			<polygon class="st43" points="6.6,14.2 5.4,14.2 6.1,15.1 7.3,15.1 			"/>
			<polygon class="st56" points="7.9,14.2 6.6,14.2 7.3,15.1 8.5,15.1 			"/>
			<polygon class="st7" points="9.1,14.2 7.9,14.2 8.5,15.1 9.7,15.1 			"/>
			<polygon class="st58" points="10.3,14.2 9.1,14.2 9.7,15.1 11,15.1 			"/>
			<polygon class="st52" points="11.5,14.2 10.3,14.2 11,15.1 12.2,15.1 			"/>
			<polygon class="st31" points="12.8,14.2 11.5,14.2 12.2,15.1 13.4,15.1 			"/>
			<polygon class="st31" points="14,14.2 12.8,14.2 13.4,15.1 14.6,15.1 			"/>
			<polygon class="st31" points="15.2,14.2 14,14.2 14.6,15.1 15.9,15.1 			"/>
			<polygon class="st31" points="16.4,14.2 15.2,14.2 15.9,15.1 17.1,15.1 			"/>
			<polygon class="st31" points="17.7,14.2 16.4,14.2 17.1,15.1 18.3,15.1 			"/>
			<polygon class="st31" points="18.9,14.2 17.7,14.2 18.3,15.1 19.5,15.1 			"/>
			<polygon class="st31" points="20.1,14.2 18.9,14.2 19.5,15.1 20.8,15.1 			"/>
			<polygon class="st31" points="21.3,14.2 20.1,14.2 20.8,15.1 22,15.1 			"/>
			<polygon class="st31" points="22.6,14.2 21.3,14.2 22,15.1 23.2,15.1 			"/>
			<polygon class="st31" points="23.8,14.2 22.6,14.2 23.2,15.1 24.4,15.1 			"/>
			<polygon class="st31" points="25,14.2 23.8,14.2 24.4,15.1 25,15.1 			"/>
			<polygon class="st23" points="0,16.1 0.6,16.1 0,15.2 			"/>
			<polygon class="st10" points="0,15.2 0.6,16.1 1.8,16.1 1.2,15.1 0,15.1 			"/>
			<polygon class="st36" points="2.4,15.1 1.2,15.1 1.8,16.1 3.1,16.1 			"/>
			<polygon class="st1" points="3.6,15.1 2.4,15.1 3.1,16.1 4.3,16.1 			"/>
			<polygon class="st30" points="4.8,15.1 3.6,15.1 4.3,16.1 5.5,16.1 			"/>
			<polygon class="st22" points="6.1,15.1 4.8,15.1 5.5,16.1 6.7,16.1 			"/>
			<polygon class="st1" points="7.3,15.1 6.1,15.1 6.7,16.1 8,16.1 			"/>
			<polygon class="st56" points="8.5,15.1 7.3,15.1 8,16.1 9.2,16.1 			"/>
			<polygon class="st26" points="9.7,15.1 8.5,15.1 9.2,16.1 10.4,16.1 			"/>
			<polygon class="st54" points="11,15.1 9.7,15.1 10.4,16.1 11.6,16.1 			"/>
			<polygon class="st31" points="12.2,15.1 11,15.1 11.6,16.1 12.9,16.1 			"/>
			<polygon class="st31" points="13.4,15.1 12.2,15.1 12.9,16.1 14.1,16.1 			"/>
			<polygon class="st31" points="14.6,15.1 13.4,15.1 14.1,16.1 15.3,16.1 			"/>
			<polygon class="st31" points="15.9,15.1 14.6,15.1 15.3,16.1 16.5,16.1 			"/>
			<polygon class="st31" points="17.1,15.1 15.9,15.1 16.5,16.1 17.8,16.1 			"/>
			<polygon class="st54" points="18.3,15.1 17.1,15.1 17.8,16.1 19,16.1 			"/>
			<polygon class="st26" points="19.5,15.1 18.3,15.1 19,16.1 20.2,16.1 			"/>
			<polygon class="st31" points="20.8,15.1 19.5,15.1 20.2,16.1 21.4,16.1 			"/>
			<polygon class="st31" points="22,15.1 20.8,15.1 21.4,16.1 22.7,16.1 			"/>
			<polygon class="st31" points="23.2,15.1 22,15.1 22.7,16.1 23.9,16.1 			"/>
			<polygon class="st31" points="23.9,16.1 25,16.1 25,15.9 24.4,15.1 23.2,15.1 			"/>
			<polygon class="st31" points="25,15.9 25,15.1 24.4,15.1 			"/>
			<polygon class="st45" points="0,16.9 0,17 1.3,17 0.6,16.1 0,16.1 			"/>
			<polygon class="st8" points="1.8,16.1 0.6,16.1 1.3,17 2.5,17 			"/>
			<polygon class="st13" points="3.1,16.1 1.8,16.1 2.5,17 3.7,17 			"/>
			<polygon class="st21" points="4.3,16.1 3.1,16.1 3.7,17 4.9,17 			"/>
			<polygon class="st11" points="5.5,16.1 4.3,16.1 4.9,17 6.2,17 			"/>
			<polygon class="st14" points="6.7,16.1 5.5,16.1 6.2,17 7.4,17 			"/>
			<polygon class="st0" points="8,16.1 6.7,16.1 7.4,17 8.6,17 			"/>
			<polygon class="st57" points="9.2,16.1 8,16.1 8.6,17 9.8,17 			"/>
			<polygon class="st31" points="10.4,16.1 9.2,16.1 9.8,17 11.1,17 			"/>
			<polygon class="st31" points="11.6,16.1 10.4,16.1 11.1,17 12.3,17 			"/>
			<polygon class="st31" points="12.9,16.1 11.6,16.1 12.3,17 13.5,17 			"/>
			<polygon class="st31" points="14.1,16.1 12.9,16.1 13.5,17 14.7,17 			"/>
			<polygon class="st31" points="15.3,16.1 14.1,16.1 14.7,17 16,17 			"/>
			<polygon class="st31" points="16.5,16.1 15.3,16.1 16,17 17.2,17 			"/>
			<polygon class="st31" points="17.8,16.1 16.5,16.1 17.2,17 18.4,17 			"/>
			<polygon class="st58" points="19,16.1 17.8,16.1 18.4,17 19.6,17 			"/>
			<polygon class="st58" points="20.2,16.1 19,16.1 19.6,17 20.9,17 			"/>
			<polygon class="st31" points="21.4,16.1 20.2,16.1 20.9,17 22.1,17 			"/>
			<polygon class="st31" points="22.7,16.1 21.4,16.1 22.1,17 23.3,17 			"/>
			<polygon class="st31" points="23.9,16.1 22.7,16.1 23.3,17 24.5,17 			"/>
			<polygon class="st31" points="25,16.1 23.9,16.1 24.5,17 25,17 			"/>
		</g>
		<g>
			<polygon class="st0" points="0,17 0.4,17 1,16.1 0,16.1 			"/>
			<polygon class="st1" points="1.6,17 0.4,17 1,16.1 2.3,16.1 			"/>
			<polygon class="st2" points="2.8,17 1.6,17 2.3,16.1 3.5,16.1 			"/>
			<polygon class="st3" points="4.1,17 2.8,17 3.5,16.1 4.7,16.1 			"/>
			<polygon class="st4" points="5.3,17 4.1,17 4.7,16.1 5.9,16.1 			"/>
			<polygon class="st5" points="6.5,17 5.3,17 5.9,16.1 7.2,16.1 			"/>
			<polygon class="st6" points="7.7,17 6.5,17 7.2,16.1 8.4,16.1 			"/>
			<polygon class="st7" points="9,17 7.7,17 8.4,16.1 9.6,16.1 			"/>
			<polygon class="st8" points="10.2,17 9,17 9.6,16.1 10.8,16.1 			"/>
			<polygon class="st9" points="11.4,17 10.2,17 10.8,16.1 12.1,16.1 			"/>
			<polygon class="st10" points="12.6,17 11.4,17 12.1,16.1 13.3,16.1 			"/>
			<polygon class="st11" points="13.9,17 12.6,17 13.3,16.1 14.5,16.1 			"/>
			<polygon class="st12" points="15.1,17 13.9,17 14.5,16.1 15.7,16.1 			"/>
			<polygon class="st13" points="16.3,17 15.1,17 15.7,16.1 17,16.1 			"/>
			<polygon class="st14" points="17.5,17 16.3,17 17,16.1 18.2,16.1 			"/>
			<polygon class="st15" points="18.8,17 17.5,17 18.2,16.1 19.4,16.1 			"/>
			<polygon class="st1" points="20,17 18.8,17 19.4,16.1 20.6,16.1 			"/>
			<polygon class="st16" points="21.2,17 20,17 20.6,16.1 21.9,16.1 			"/>
			<polygon class="st17" points="22.4,17 21.2,17 21.9,16.1 23.1,16.1 			"/>
			<polygon class="st0" points="23.7,17 22.4,17 23.1,16.1 24.3,16.1 			"/>
			<polygon class="st18" points="24.9,17 25,16.8 25,16.1 24.3,16.1 23.7,17 			"/>
			<polygon class="st19" points="0,15.8 0.5,15.1 0,15.1 			"/>
			<polygon class="st20" points="0,16.1 1,16.1 1.7,15.1 0.5,15.1 0,15.8 			"/>
			<polygon class="st20" points="2.3,16.1 1,16.1 1.7,15.1 2.9,15.1 			"/>
			<polygon class="st21" points="3.5,16.1 2.3,16.1 2.9,15.1 4.2,15.1 			"/>
			<polygon class="st22" points="4.7,16.1 3.5,16.1 4.2,15.1 5.4,15.1 			"/>
			<polygon class="st23" points="5.9,16.1 4.7,16.1 5.4,15.1 6.6,15.1 			"/>
			<polygon class="st7" points="7.2,16.1 5.9,16.1 6.6,15.1 7.8,15.1 			"/>
			<polygon class="st24" points="8.4,16.1 7.2,16.1 7.8,15.1 9.1,15.1 			"/>
			<polygon class="st25" points="9.6,16.1 8.4,16.1 9.1,15.1 10.3,15.1 			"/>
			<polygon class="st26" points="10.8,16.1 9.6,16.1 10.3,15.1 11.5,15.1 			"/>
			<polygon class="st4" points="12.1,16.1 10.8,16.1 11.5,15.1 12.7,15.1 			"/>
			<polygon class="st12" points="13.3,16.1 12.1,16.1 12.7,15.1 14,15.1 			"/>
			<polygon class="st27" points="14.5,16.1 13.3,16.1 14,15.1 15.2,15.1 			"/>
			<polygon class="st28" points="15.7,16.1 14.5,16.1 15.2,15.1 16.4,15.1 			"/>
			<polygon class="st23" points="17,16.1 15.7,16.1 16.4,15.1 17.6,15.1 			"/>
			<polygon class="st4" points="18.2,16.1 17,16.1 17.6,15.1 18.9,15.1 			"/>
			<polygon class="st22" points="19.4,16.1 18.2,16.1 18.9,15.1 20.1,15.1 			"/>
			<polygon class="st25" points="20.6,16.1 19.4,16.1 20.1,15.1 21.3,15.1 			"/>
			<polygon class="st10" points="21.9,16.1 20.6,16.1 21.3,15.1 22.5,15.1 			"/>
			<polygon class="st29" points="23.1,16.1 21.9,16.1 22.5,15.1 23.8,15.1 			"/>
			<polygon class="st30" points="24.3,16.1 23.1,16.1 23.8,15.1 25,15.1 			"/>
			<polygon class="st20" points="25,16.1 25,15.1 25,15.1 24.3,16.1 			"/>
			<polygon class="st19" points="0,15.1 0.5,15.1 1.1,14.2 0,14.2 			"/>
			<polygon class="st16" points="1.7,15.1 0.5,15.1 1.1,14.2 2.4,14.2 			"/>
			<polygon class="st1" points="2.9,15.1 1.7,15.1 2.4,14.2 3.6,14.2 			"/>
			<polygon class="st21" points="4.2,15.1 2.9,15.1 3.6,14.2 4.8,14.2 			"/>
			<polygon class="st1" points="5.4,15.1 4.2,15.1 4.8,14.2 6,14.2 			"/>
			<polygon class="st2" points="6.6,15.1 5.4,15.1 6,14.2 7.3,14.2 			"/>
			<polygon class="st4" points="7.8,15.1 6.6,15.1 7.3,14.2 8.5,14.2 			"/>
			<polygon class="st26" points="9.1,15.1 7.8,15.1 8.5,14.2 9.7,14.2 			"/>
			<polygon class="st25" points="10.3,15.1 9.1,15.1 9.7,14.2 10.9,14.2 			"/>
			<polygon class="st31" points="11.5,15.1 10.3,15.1 10.9,14.2 12.2,14.2 			"/>
			<polygon class="st28" points="12.7,15.1 11.5,15.1 12.2,14.2 13.4,14.2 			"/>
			<polygon class="st31" points="14,15.1 12.7,15.1 13.4,14.2 14.6,14.2 			"/>
			<polygon class="st32" points="15.2,15.1 14,15.1 14.6,14.2 15.8,14.2 			"/>
			<polygon class="st33" points="16.4,15.1 15.2,15.1 15.8,14.2 17.1,14.2 			"/>
			<polygon class="st29" points="17.6,15.1 16.4,15.1 17.1,14.2 18.3,14.2 			"/>
			<polygon class="st34" points="18.9,15.1 17.6,15.1 18.3,14.2 19.5,14.2 			"/>
			<polygon class="st34" points="20.1,15.1 18.9,15.1 19.5,14.2 20.7,14.2 			"/>
			<polygon class="st11" points="21.3,15.1 20.1,15.1 20.7,14.2 22,14.2 			"/>
			<polygon class="st3" points="22.5,15.1 21.3,15.1 22,14.2 23.2,14.2 			"/>
			<polygon class="st35" points="23.8,15.1 22.5,15.1 23.2,14.2 24.4,14.2 			"/>
			<polygon class="st36" points="25,15.1 25,15.1 25,14.2 24.4,14.2 23.8,15.1 			"/>
			<polygon class="st37" points="0,14 0.6,13.2 0,13.2 			"/>
			<polygon class="st16" points="0,14.2 1.1,14.2 1.8,13.2 0.6,13.2 0,14 			"/>
			<polygon class="st17" points="2.4,14.2 1.1,14.2 1.8,13.2 3,13.2 			"/>
			<polygon class="st30" points="3.6,14.2 2.4,14.2 3,13.2 4.3,13.2 			"/>
			<polygon class="st36" points="4.8,14.2 3.6,14.2 4.3,13.2 5.5,13.2 			"/>
			<polygon class="st11" points="6,14.2 4.8,14.2 5.5,13.2 6.7,13.2 			"/>
			<polygon class="st38" points="7.3,14.2 6,14.2 6.7,13.2 7.9,13.2 			"/>
			<polygon class="st4" points="8.5,14.2 7.3,14.2 7.9,13.2 9.2,13.2 			"/>
			<polygon class="st39" points="9.7,14.2 8.5,14.2 9.2,13.2 10.4,13.2 			"/>
			<polygon class="st40" points="10.9,14.2 9.7,14.2 10.4,13.2 11.6,13.2 			"/>
			<polygon class="st6" points="12.2,14.2 10.9,14.2 11.6,13.2 12.8,13.2 			"/>
			<polygon class="st26" points="13.4,14.2 12.2,14.2 12.8,13.2 14.1,13.2 			"/>
			<polygon class="st33" points="14.6,14.2 13.4,14.2 14.1,13.2 15.3,13.2 			"/>
			<polygon class="st31" points="15.8,14.2 14.6,14.2 15.3,13.2 16.5,13.2 			"/>
			<polygon class="st41" points="17.1,14.2 15.8,14.2 16.5,13.2 17.7,13.2 			"/>
			<polygon class="st42" points="18.3,14.2 17.1,14.2 17.7,13.2 19,13.2 			"/>
			<polygon class="st43" points="19.5,14.2 18.3,14.2 19,13.2 20.2,13.2 			"/>
			<polygon class="st25" points="20.7,14.2 19.5,14.2 20.2,13.2 21.4,13.2 			"/>
			<polygon class="st41" points="22,14.2 20.7,14.2 21.4,13.2 22.6,13.2 			"/>
			<polygon class="st44" points="23.2,14.2 22,14.2 22.6,13.2 23.9,13.2 			"/>
			<polygon class="st11" points="24.4,14.2 25,13.3 25,13.2 23.9,13.2 23.2,14.2 			"/>
			<polygon class="st15" points="25,14.2 25,13.3 24.4,14.2 			"/>
			<polygon class="st37" points="0,13.2 0.6,13.2 1.2,12.3 0,12.3 0,12.3 			"/>
			<polygon class="st19" points="1.8,13.2 0.6,13.2 1.2,12.3 2.5,12.3 			"/>
			<polygon class="st19" points="3,13.2 1.8,13.2 2.5,12.3 3.7,12.3 			"/>
			<polygon class="st1" points="4.3,13.2 3,13.2 3.7,12.3 4.9,12.3 			"/>
			<polygon class="st2" points="5.5,13.2 4.3,13.2 4.9,12.3 6.1,12.3 			"/>
			<polygon class="st7" points="6.7,13.2 5.5,13.2 6.1,12.3 7.4,12.3 			"/>
			<polygon class="st44" points="7.9,13.2 6.7,13.2 7.4,12.3 8.6,12.3 			"/>
			<polygon class="st12" points="9.2,13.2 7.9,13.2 8.6,12.3 9.8,12.3 			"/>
			<polygon class="st45" points="10.4,13.2 9.2,13.2 9.8,12.3 11,12.3 			"/>
			<polygon class="st7" points="11.6,13.2 10.4,13.2 11,12.3 12.3,12.3 			"/>
			<polygon class="st6" points="12.8,13.2 11.6,13.2 12.3,12.3 13.5,12.3 			"/>
			<polygon class="st40" points="14.1,13.2 12.8,13.2 13.5,12.3 14.7,12.3 			"/>
			<polygon class="st46" points="15.3,13.2 14.1,13.2 14.7,12.3 15.9,12.3 			"/>
			<polygon class="st47" points="16.5,13.2 15.3,13.2 15.9,12.3 17.2,12.3 			"/>
			<polygon class="st31" points="17.7,13.2 16.5,13.2 17.2,12.3 18.4,12.3 			"/>
			<polygon class="st25" points="19,13.2 17.7,13.2 18.4,12.3 19.6,12.3 			"/>
			<polygon class="st8" points="20.2,13.2 19,13.2 19.6,12.3 20.8,12.3 			"/>
			<polygon class="st48" points="21.4,13.2 20.2,13.2 20.8,12.3 22.1,12.3 			"/>
			<polygon class="st32" points="22.6,13.2 21.4,13.2 22.1,12.3 23.3,12.3 			"/>
			<polygon class="st31" points="23.9,13.2 22.6,13.2 23.3,12.3 24.5,12.3 			"/>
			<polygon class="st39" points="25,13.2 25,12.3 24.5,12.3 23.9,13.2 			"/>
			<polygon class="st49" points="0,12.3 0,12.3 0.7,11.3 0,11.3 			"/>
			<polygon class="st17" points="1.2,12.3 0,12.3 0.7,11.3 1.9,11.3 			"/>
			<polygon class="st30" points="2.5,12.3 1.2,12.3 1.9,11.3 3.1,11.3 			"/>
			<polygon class="st21" points="3.7,12.3 2.5,12.3 3.1,11.3 4.4,11.3 			"/>
			<polygon class="st22" points="4.9,12.3 3.7,12.3 4.4,11.3 5.6,11.3 			"/>
			<polygon class="st50" points="6.1,12.3 4.9,12.3 5.6,11.3 6.8,11.3 			"/>
			<polygon class="st13" points="7.4,12.3 6.1,12.3 6.8,11.3 8,11.3 			"/>
			<polygon class="st8" points="8.6,12.3 7.4,12.3 8,11.3 9.2,11.3 			"/>
			<polygon class="st12" points="9.8,12.3 8.6,12.3 9.2,11.3 10.5,11.3 			"/>
			<polygon class="st5" points="11,12.3 9.8,12.3 10.5,11.3 11.7,11.3 			"/>
			<polygon class="st41" points="12.3,12.3 11,12.3 11.7,11.3 12.9,11.3 			"/>
			<polygon class="st38" points="13.5,12.3 12.3,12.3 12.9,11.3 14.1,11.3 			"/>
			<polygon class="st51" points="14.7,12.3 13.5,12.3 14.1,11.3 15.4,11.3 			"/>
			<polygon class="st51" points="15.9,12.3 14.7,12.3 15.4,11.3 16.6,11.3 			"/>
			<polygon class="st31" points="17.2,12.3 15.9,12.3 16.6,11.3 17.8,11.3 			"/>
			<polygon class="st52" points="18.4,12.3 17.2,12.3 17.8,11.3 19,11.3 			"/>
			<polygon class="st47" points="19.6,12.3 18.4,12.3 19,11.3 20.3,11.3 			"/>
			<polygon class="st51" points="20.8,12.3 19.6,12.3 20.3,11.3 21.5,11.3 			"/>
			<polygon class="st26" points="22.1,12.3 20.8,12.3 21.5,11.3 22.7,11.3 			"/>
			<polygon class="st31" points="23.3,12.3 22.1,12.3 22.7,11.3 23.9,11.3 			"/>
			<polygon class="st33" points="24.5,12.3 25,11.6 25,11.3 23.9,11.3 23.3,12.3 			"/>
			<polygon class="st31" points="25,12.3 25,11.6 24.5,12.3 			"/>
			<polygon class="st15" points="0,10.5 0.1,10.4 0,10.4 			"/>
			<polygon class="st15" points="0,11.3 0.7,11.3 1.3,10.4 0.1,10.4 0,10.5 			"/>
			<polygon class="st16" points="1.9,11.3 0.7,11.3 1.3,10.4 2.6,10.4 			"/>
			<polygon class="st36" points="3.1,11.3 1.9,11.3 2.6,10.4 3.8,10.4 			"/>
			<polygon class="st0" points="4.4,11.3 3.1,11.3 3.8,10.4 5,10.4 			"/>
			<polygon class="st13" points="5.6,11.3 4.4,11.3 5,10.4 6.2,10.4 			"/>
			<polygon class="st50" points="6.8,11.3 5.6,11.3 6.2,10.4 7.5,10.4 			"/>
			<polygon class="st8" points="8,11.3 6.8,11.3 7.5,10.4 8.7,10.4 			"/>
			<polygon class="st29" points="9.2,11.3 8,11.3 8.7,10.4 9.9,10.4 			"/>
			<polygon class="st10" points="10.5,11.3 9.2,11.3 9.9,10.4 11.1,10.4 			"/>
			<polygon class="st53" points="11.7,11.3 10.5,11.3 11.1,10.4 12.4,10.4 			"/>
			<polygon class="st42" points="12.9,11.3 11.7,11.3 12.4,10.4 13.6,10.4 			"/>
			<polygon class="st24" points="14.1,11.3 12.9,11.3 13.6,10.4 14.8,10.4 			"/>
			<polygon class="st42" points="15.4,11.3 14.1,11.3 14.8,10.4 16,10.4 			"/>
			<polygon class="st31" points="16.6,11.3 15.4,11.3 16,10.4 17.3,10.4 			"/>
			<polygon class="st41" points="17.8,11.3 16.6,11.3 17.3,10.4 18.5,10.4 			"/>
			<polygon class="st31" points="19,11.3 17.8,11.3 18.5,10.4 19.7,10.4 			"/>
			<polygon class="st31" points="20.3,11.3 19,11.3 19.7,10.4 20.9,10.4 			"/>
			<polygon class="st33" points="21.5,11.3 20.3,11.3 20.9,10.4 22.2,10.4 			"/>
			<polygon class="st31" points="22.7,11.3 21.5,11.3 22.2,10.4 23.4,10.4 			"/>
			<polygon class="st31" points="23.9,11.3 22.7,11.3 23.4,10.4 24.6,10.4 			"/>
			<polygon class="st54" points="25,11.3 25,10.4 24.6,10.4 23.9,11.3 			"/>
			<polygon class="st1" points="0,10.4 0.1,10.4 0.8,9.4 0,9.4 			"/>
			<polygon class="st36" points="1.3,10.4 0.1,10.4 0.8,9.4 2,9.4 			"/>
			<polygon class="st0" points="2.6,10.4 1.3,10.4 2,9.4 3.2,9.4 			"/>
			<polygon class="st1" points="3.8,10.4 2.6,10.4 3.2,9.4 4.4,9.4 			"/>
			<polygon class="st11" points="5,10.4 3.8,10.4 4.4,9.4 5.7,9.4 			"/>
			<polygon class="st34" points="6.2,10.4 5,10.4 5.7,9.4 6.9,9.4 			"/>
			<polygon class="st2" points="7.5,10.4 6.2,10.4 6.9,9.4 8.1,9.4 			"/>
			<polygon class="st4" points="8.7,10.4 7.5,10.4 8.1,9.4 9.3,9.4 			"/>
			<polygon class="st45" points="9.9,10.4 8.7,10.4 9.3,9.4 10.6,9.4 			"/>
			<polygon class="st8" points="11.1,10.4 9.9,10.4 10.6,9.4 11.8,9.4 			"/>
			<polygon class="st6" points="12.4,10.4 11.1,10.4 11.8,9.4 13,9.4 			"/>
			<polygon class="st55" points="13.6,10.4 12.4,10.4 13,9.4 14.2,9.4 			"/>
			<polygon class="st45" points="14.8,10.4 13.6,10.4 14.2,9.4 15.5,9.4 			"/>
			<polygon class="st54" points="16,10.4 14.8,10.4 15.5,9.4 16.7,9.4 			"/>
			<polygon class="st31" points="17.3,10.4 16,10.4 16.7,9.4 17.9,9.4 			"/>
			<polygon class="st31" points="18.5,10.4 17.3,10.4 17.9,9.4 19.1,9.4 			"/>
			<polygon class="st31" points="19.7,10.4 18.5,10.4 19.1,9.4 20.4,9.4 			"/>
			<polygon class="st31" points="20.9,10.4 19.7,10.4 20.4,9.4 21.6,9.4 			"/>
			<polygon class="st31" points="22.2,10.4 20.9,10.4 21.6,9.4 22.8,9.4 			"/>
			<polygon class="st31" points="23.4,10.4 22.2,10.4 22.8,9.4 24,9.4 			"/>
			<polygon class="st31" points="24.6,10.4 25,9.8 25,9.4 24,9.4 23.4,10.4 			"/>
			<polygon class="st31" points="25,10.4 25,9.8 24.6,10.4 			"/>
			<polygon class="st15" points="0,8.8 0.2,8.5 0,8.5 			"/>
			<polygon class="st15" points="0,9.4 0.8,9.4 1.4,8.5 0.2,8.5 0,8.8 			"/>
			<polygon class="st13" points="2,9.4 0.8,9.4 1.4,8.5 2.7,8.5 			"/>
			<polygon class="st15" points="3.2,9.4 2,9.4 2.7,8.5 3.9,8.5 			"/>
			<polygon class="st43" points="4.4,9.4 3.2,9.4 3.9,8.5 5.1,8.5 			"/>
			<polygon class="st13" points="5.7,9.4 4.4,9.4 5.1,8.5 6.3,8.5 			"/>
			<polygon class="st34" points="6.9,9.4 5.7,9.4 6.3,8.5 7.6,8.5 			"/>
			<polygon class="st34" points="8.1,9.4 6.9,9.4 7.6,8.5 8.8,8.5 			"/>
			<polygon class="st53" points="9.3,9.4 8.1,9.4 8.8,8.5 10,8.5 			"/>
			<polygon class="st11" points="10.6,9.4 9.3,9.4 10,8.5 11.2,8.5 			"/>
			<polygon class="st29" points="11.8,9.4 10.6,9.4 11.2,8.5 12.5,8.5 			"/>
			<polygon class="st40" points="13,9.4 11.8,9.4 12.5,8.5 13.7,8.5 			"/>
			<polygon class="st39" points="14.2,9.4 13,9.4 13.7,8.5 14.9,8.5 			"/>
			<polygon class="st31" points="15.5,9.4 14.2,9.4 14.9,8.5 16.1,8.5 			"/>
			<polygon class="st32" points="16.7,9.4 15.5,9.4 16.1,8.5 17.4,8.5 			"/>
			<polygon class="st31" points="17.9,9.4 16.7,9.4 17.4,8.5 18.6,8.5 			"/>
			<polygon class="st47" points="19.1,9.4 17.9,9.4 18.6,8.5 19.8,8.5 			"/>
			<polygon class="st31" points="20.4,9.4 19.1,9.4 19.8,8.5 21,8.5 			"/>
			<polygon class="st31" points="21.6,9.4 20.4,9.4 21,8.5 22.3,8.5 			"/>
			<polygon class="st31" points="22.8,9.4 21.6,9.4 22.3,8.5 23.5,8.5 			"/>
			<polygon class="st31" points="24,9.4 22.8,9.4 23.5,8.5 24.7,8.5 			"/>
			<polygon class="st31" points="25,9.4 25,8.5 24.7,8.5 24,9.4 			"/>
			<polygon class="st43" points="0,8.5 0.2,8.5 0.9,7.6 0,7.6 			"/>
			<polygon class="st13" points="1.4,8.5 0.2,8.5 0.9,7.6 2.1,7.6 			"/>
			<polygon class="st21" points="2.7,8.5 1.4,8.5 2.1,7.6 3.3,7.6 			"/>
			<polygon class="st50" points="3.9,8.5 2.7,8.5 3.3,7.6 4.5,7.6 			"/>
			<polygon class="st2" points="5.1,8.5 3.9,8.5 4.5,7.6 5.8,7.6 			"/>
			<polygon class="st45" points="6.3,8.5 5.1,8.5 5.8,7.6 7,7.6 			"/>
			<polygon class="st38" points="7.6,8.5 6.3,8.5 7,7.6 8.2,7.6 			"/>
			<polygon class="st10" points="8.8,8.5 7.6,8.5 8.2,7.6 9.4,7.6 			"/>
			<polygon class="st56" points="10,8.5 8.8,8.5 9.4,7.6 10.7,7.6 			"/>
			<polygon class="st23" points="11.2,8.5 10,8.5 10.7,7.6 11.9,7.6 			"/>
			<polygon class="st38" points="12.5,8.5 11.2,8.5 11.9,7.6 13.1,7.6 			"/>
			<polygon class="st40" points="13.7,8.5 12.5,8.5 13.1,7.6 14.3,7.6 			"/>
			<polygon class="st41" points="14.9,8.5 13.7,8.5 14.3,7.6 15.6,7.6 			"/>
			<polygon class="st54" points="16.1,8.5 14.9,8.5 15.6,7.6 16.8,7.6 			"/>
			<polygon class="st56" points="17.4,8.5 16.1,8.5 16.8,7.6 18,7.6 			"/>
			<polygon class="st31" points="18.6,8.5 17.4,8.5 18,7.6 19.2,7.6 			"/>
			<polygon class="st31" points="19.8,8.5 18.6,8.5 19.2,7.6 20.5,7.6 			"/>
			<polygon class="st31" points="21,8.5 19.8,8.5 20.5,7.6 21.7,7.6 			"/>
			<polygon class="st31" points="22.3,8.5 21,8.5 21.7,7.6 22.9,7.6 			"/>
			<polygon class="st31" points="23.5,8.5 22.3,8.5 22.9,7.6 24.1,7.6 			"/>
			<polygon class="st31" points="24.7,8.5 25,8.1 25,7.6 24.1,7.6 23.5,8.5 			"/>
			<polygon class="st31" points="25,8.5 25,8.1 24.7,8.5 			"/>
			<polygon class="st36" points="0,7.1 0.3,6.6 0,6.6 			"/>
			<polygon class="st50" points="0,7.6 0.9,7.6 1.5,6.6 0.3,6.6 0,7.1 			"/>
			<polygon class="st22" points="2.1,7.6 0.9,7.6 1.5,6.6 2.8,6.6 			"/>
			<polygon class="st3" points="3.3,7.6 2.1,7.6 2.8,6.6 4,6.6 			"/>
			<polygon class="st15" points="4.5,7.6 3.3,7.6 4,6.6 5.2,6.6 			"/>
			<polygon class="st13" points="5.8,7.6 4.5,7.6 5.2,6.6 6.4,6.6 			"/>
			<polygon class="st11" points="7,7.6 5.8,7.6 6.4,6.6 7.7,6.6 			"/>
			<polygon class="st12" points="8.2,7.6 7,7.6 7.7,6.6 8.9,6.6 			"/>
			<polygon class="st56" points="9.4,7.6 8.2,7.6 8.9,6.6 10.1,6.6 			"/>
			<polygon class="st5" points="10.7,7.6 9.4,7.6 10.1,6.6 11.3,6.6 			"/>
			<polygon class="st23" points="11.9,7.6 10.7,7.6 11.3,6.6 12.6,6.6 			"/>
			<polygon class="st45" points="13.1,7.6 11.9,7.6 12.6,6.6 13.8,6.6 			"/>
			<polygon class="st42" points="14.3,7.6 13.1,7.6 13.8,6.6 15,6.6 			"/>
			<polygon class="st46" points="15.6,7.6 14.3,7.6 15,6.6 16.2,6.6 			"/>
			<polygon class="st41" points="16.8,7.6 15.6,7.6 16.2,6.6 17.5,6.6 			"/>
			<polygon class="st41" points="18,7.6 16.8,7.6 17.5,6.6 18.7,6.6 			"/>
			<polygon class="st31" points="19.2,7.6 18,7.6 18.7,6.6 19.9,6.6 			"/>
			<polygon class="st31" points="20.5,7.6 19.2,7.6 19.9,6.6 21.1,6.6 			"/>
			<polygon class="st31" points="21.7,7.6 20.5,7.6 21.1,6.6 22.4,6.6 			"/>
			<polygon class="st31" points="22.9,7.6 21.7,7.6 22.4,6.6 23.6,6.6 			"/>
			<polygon class="st31" points="24.1,7.6 22.9,7.6 23.6,6.6 24.8,6.6 			"/>
			<polygon class="st31" points="25,7.6 25,6.6 24.8,6.6 24.1,7.6 			"/>
			<polygon class="st15" points="0,6.6 0.3,6.6 1,5.7 0,5.7 			"/>
			<polygon class="st50" points="1.5,6.6 0.3,6.6 1,5.7 2.2,5.7 			"/>
			<polygon class="st13" points="2.8,6.6 1.5,6.6 2.2,5.7 3.4,5.7 			"/>
			<polygon class="st43" points="4,6.6 2.8,6.6 3.4,5.7 4.6,5.7 			"/>
			<polygon class="st43" points="5.2,6.6 4,6.6 4.6,5.7 5.9,5.7 			"/>
			<polygon class="st12" points="6.4,6.6 5.2,6.6 5.9,5.7 7.1,5.7 			"/>
			<polygon class="st35" points="7.7,6.6 6.4,6.6 7.1,5.7 8.3,5.7 			"/>
			<polygon class="st46" points="8.9,6.6 7.7,6.6 8.3,5.7 9.5,5.7 			"/>
			<polygon class="st5" points="10.1,6.6 8.9,6.6 9.5,5.7 10.8,5.7 			"/>
			<polygon class="st53" points="11.3,6.6 10.1,6.6 10.8,5.7 12,5.7 			"/>
			<polygon class="st48" points="12.6,6.6 11.3,6.6 12,5.7 13.2,5.7 			"/>
			<polygon class="st24" points="13.8,6.6 12.6,6.6 13.2,5.7 14.4,5.7 			"/>
			<polygon class="st48" points="15,6.6 13.8,6.6 14.4,5.7 15.7,5.7 			"/>
			<polygon class="st48" points="16.2,6.6 15,6.6 15.7,5.7 16.9,5.7 			"/>
			<polygon class="st31" points="17.5,6.6 16.2,6.6 16.9,5.7 18.1,5.7 			"/>
			<polygon class="st55" points="18.7,6.6 17.5,6.6 18.1,5.7 19.3,5.7 			"/>
			<polygon class="st31" points="19.9,6.6 18.7,6.6 19.3,5.7 20.6,5.7 			"/>
			<polygon class="st31" points="21.1,6.6 19.9,6.6 20.6,5.7 21.8,5.7 			"/>
			<polygon class="st31" points="22.4,6.6 21.1,6.6 21.8,5.7 23,5.7 			"/>
			<polygon class="st31" points="23.6,6.6 22.4,6.6 23,5.7 24.2,5.7 			"/>
			<polygon class="st31" points="24.8,6.6 25,6.3 25,5.7 24.2,5.7 23.6,6.6 			"/>
			<polygon class="st31" points="25,6.6 25,6.3 24.8,6.6 			"/>
			<polygon class="st14" points="0,5.3 0.4,4.7 0,4.7 			"/>
			<polygon class="st15" points="0,5.7 1,5.7 1.6,4.7 0.4,4.7 0,5.3 			"/>
			<polygon class="st14" points="2.2,5.7 1,5.7 1.6,4.7 2.9,4.7 			"/>
			<polygon class="st11" points="3.4,5.7 2.2,5.7 2.9,4.7 4.1,4.7 			"/>
			<polygon class="st22" points="4.6,5.7 3.4,5.7 4.1,4.7 5.3,4.7 			"/>
			<polygon class="st13" points="5.9,5.7 4.6,5.7 5.3,4.7 6.5,4.7 			"/>
			<polygon class="st13" points="7.1,5.7 5.9,5.7 6.5,4.7 7.8,4.7 			"/>
			<polygon class="st38" points="8.3,5.7 7.1,5.7 7.8,4.7 9,4.7 			"/>
			<polygon class="st31" points="9.5,5.7 8.3,5.7 9,4.7 10.2,4.7 			"/>
			<polygon class="st45" points="10.8,5.7 9.5,5.7 10.2,4.7 11.4,4.7 			"/>
			<polygon class="st6" points="12,5.7 10.8,5.7 11.4,4.7 12.7,4.7 			"/>
			<polygon class="st53" points="13.2,5.7 12,5.7 12.7,4.7 13.9,4.7 			"/>
			<polygon class="st41" points="14.4,5.7 13.2,5.7 13.9,4.7 15.1,4.7 			"/>
			<polygon class="st57" points="15.7,5.7 14.4,5.7 15.1,4.7 16.3,4.7 			"/>
			<polygon class="st24" points="16.9,5.7 15.7,5.7 16.3,4.7 17.6,4.7 			"/>
			<polygon class="st54" points="18.1,5.7 16.9,5.7 17.6,4.7 18.8,4.7 			"/>
			<polygon class="st31" points="19.3,5.7 18.1,5.7 18.8,4.7 20,4.7 			"/>
			<polygon class="st31" points="20.6,5.7 19.3,5.7 20,4.7 21.2,4.7 			"/>
			<polygon class="st31" points="21.8,5.7 20.6,5.7 21.2,4.7 22.5,4.7 			"/>
			<polygon class="st31" points="23,5.7 21.8,5.7 22.5,4.7 23.7,4.7 			"/>
			<polygon class="st31" points="24.2,5.7 23,5.7 23.7,4.7 24.9,4.7 			"/>
			<polygon class="st31" points="25,5.7 25,4.7 24.9,4.7 24.2,5.7 			"/>
			<polygon class="st50" points="0,4.7 0.4,4.7 1.1,3.8 0,3.8 			"/>
			<polygon class="st21" points="1.6,4.7 0.4,4.7 1.1,3.8 2.3,3.8 			"/>
			<polygon class="st21" points="2.9,4.7 1.6,4.7 2.3,3.8 3.5,3.8 			"/>
			<polygon class="st2" points="4.1,4.7 2.9,4.7 3.5,3.8 4.7,3.8 			"/>
			<polygon class="st23" points="5.3,4.7 4.1,4.7 4.7,3.8 6,3.8 			"/>
			<polygon class="st10" points="6.5,4.7 5.3,4.7 6,3.8 7.2,3.8 			"/>
			<polygon class="st28" points="7.8,4.7 6.5,4.7 7.2,3.8 8.4,3.8 			"/>
			<polygon class="st28" points="9,4.7 7.8,4.7 8.4,3.8 9.6,3.8 			"/>
			<polygon class="st5" points="10.2,4.7 9,4.7 9.6,3.8 10.9,3.8 			"/>
			<polygon class="st39" points="11.4,4.7 10.2,4.7 10.9,3.8 12.1,3.8 			"/>
			<polygon class="st52" points="12.7,4.7 11.4,4.7 12.1,3.8 13.3,3.8 			"/>
			<polygon class="st33" points="13.9,4.7 12.7,4.7 13.3,3.8 14.5,3.8 			"/>
			<polygon class="st47" points="15.1,4.7 13.9,4.7 14.5,3.8 15.8,3.8 			"/>
			<polygon class="st42" points="16.3,4.7 15.1,4.7 15.8,3.8 17,3.8 			"/>
			<polygon class="st46" points="17.6,4.7 16.3,4.7 17,3.8 18.2,3.8 			"/>
			<polygon class="st26" points="18.8,4.7 17.6,4.7 18.2,3.8 19.4,3.8 			"/>
			<polygon class="st31" points="20,4.7 18.8,4.7 19.4,3.8 20.7,3.8 			"/>
			<polygon class="st31" points="21.2,4.7 20,4.7 20.7,3.8 21.9,3.8 			"/>
			<polygon class="st31" points="22.5,4.7 21.2,4.7 21.9,3.8 23.1,3.8 			"/>
			<polygon class="st31" points="23.7,4.7 22.5,4.7 23.1,3.8 24.3,3.8 			"/>
			<polygon class="st31" points="24.9,4.7 25,4.6 25,3.8 24.3,3.8 23.7,4.7 			"/>
			<polygon class="st31" points="25,4.7 25,4.6 24.9,4.7 			"/>
			<polygon class="st21" points="0,3.6 0.5,2.8 0,2.8 			"/>
			<polygon class="st14" points="0,3.8 1.1,3.8 1.7,2.8 0.5,2.8 0,3.6 			"/>
			<polygon class="st21" points="2.3,3.8 1.1,3.8 1.7,2.8 3,2.8 			"/>
			<polygon class="st17" points="3.5,3.8 2.3,3.8 3,2.8 4.2,2.8 			"/>
			<polygon class="st43" points="4.7,3.8 3.5,3.8 4.2,2.8 5.4,2.8 			"/>
			<polygon class="st8" points="6,3.8 4.7,3.8 5.4,2.8 6.6,2.8 			"/>
			<polygon class="st45" points="7.2,3.8 6,3.8 6.6,2.8 7.9,2.8 			"/>
			<polygon class="st55" points="8.4,3.8 7.2,3.8 7.9,2.8 9.1,2.8 			"/>
			<polygon class="st55" points="9.6,3.8 8.4,3.8 9.1,2.8 10.3,2.8 			"/>
			<polygon class="st57" points="10.9,3.8 9.6,3.8 10.3,2.8 11.5,2.8 			"/>
			<polygon class="st31" points="12.1,3.8 10.9,3.8 11.5,2.8 12.8,2.8 			"/>
			<polygon class="st28" points="13.3,3.8 12.1,3.8 12.8,2.8 14,2.8 			"/>
			<polygon class="st31" points="14.5,3.8 13.3,3.8 14,2.8 15.2,2.8 			"/>
			<polygon class="st31" points="15.8,3.8 14.5,3.8 15.2,2.8 16.4,2.8 			"/>
			<polygon class="st31" points="17,3.8 15.8,3.8 16.4,2.8 17.7,2.8 			"/>
			<polygon class="st31" points="18.2,3.8 17,3.8 17.7,2.8 18.9,2.8 			"/>
			<polygon class="st31" points="19.4,3.8 18.2,3.8 18.9,2.8 20.1,2.8 			"/>
			<polygon class="st31" points="20.7,3.8 19.4,3.8 20.1,2.8 21.3,2.8 			"/>
			<polygon class="st31" points="21.9,3.8 20.7,3.8 21.3,2.8 22.6,2.8 			"/>
			<polygon class="st31" points="23.1,3.8 21.9,3.8 22.6,2.8 23.8,2.8 			"/>
			<polygon class="st31" points="24.3,3.8 25,2.8 25,2.8 23.8,2.8 23.1,3.8 			"/>
			<polygon class="st31" points="25,3.8 25,2.8 24.3,3.8 			"/>
			<polygon class="st23" points="0,2.8 0.5,2.8 1.2,1.9 0,1.9 			"/>
			<polygon class="st50" points="1.7,2.8 0.5,2.8 1.2,1.9 2.4,1.9 			"/>
			<polygon class="st15" points="3,2.8 1.7,2.8 2.4,1.9 3.6,1.9 			"/>
			<polygon class="st20" points="4.2,2.8 3,2.8 3.6,1.9 4.8,1.9 			"/>
			<polygon class="st50" points="5.4,2.8 4.2,2.8 4.8,1.9 6.1,1.9 			"/>
			<polygon class="st43" points="6.6,2.8 5.4,2.8 6.1,1.9 7.3,1.9 			"/>
			<polygon class="st56" points="7.9,2.8 6.6,2.8 7.3,1.9 8.5,1.9 			"/>
			<polygon class="st7" points="9.1,2.8 7.9,2.8 8.5,1.9 9.7,1.9 			"/>
			<polygon class="st58" points="10.3,2.8 9.1,2.8 9.7,1.9 11,1.9 			"/>
			<polygon class="st52" points="11.5,2.8 10.3,2.8 11,1.9 12.2,1.9 			"/>
			<polygon class="st31" points="12.8,2.8 11.5,2.8 12.2,1.9 13.4,1.9 			"/>
			<polygon class="st31" points="14,2.8 12.8,2.8 13.4,1.9 14.6,1.9 			"/>
			<polygon class="st31" points="15.2,2.8 14,2.8 14.6,1.9 15.9,1.9 			"/>
			<polygon class="st31" points="16.4,2.8 15.2,2.8 15.9,1.9 17.1,1.9 			"/>
			<polygon class="st31" points="17.7,2.8 16.4,2.8 17.1,1.9 18.3,1.9 			"/>
			<polygon class="st31" points="18.9,2.8 17.7,2.8 18.3,1.9 19.5,1.9 			"/>
			<polygon class="st31" points="20.1,2.8 18.9,2.8 19.5,1.9 20.8,1.9 			"/>
			<polygon class="st31" points="21.3,2.8 20.1,2.8 20.8,1.9 22,1.9 			"/>
			<polygon class="st31" points="22.6,2.8 21.3,2.8 22,1.9 23.2,1.9 			"/>
			<polygon class="st31" points="23.8,2.8 22.6,2.8 23.2,1.9 24.4,1.9 			"/>
			<polygon class="st31" points="25,2.8 25,1.9 24.4,1.9 23.8,2.8 			"/>
			<polygon class="st23" points="0,1.8 0.6,0.9 0,0.9 			"/>
			<polygon class="st10" points="0,1.9 1.2,1.9 1.8,0.9 0.6,0.9 0,1.8 			"/>
			<polygon class="st36" points="2.4,1.9 1.2,1.9 1.8,0.9 3.1,0.9 			"/>
			<polygon class="st1" points="3.6,1.9 2.4,1.9 3.1,0.9 4.3,0.9 			"/>
			<polygon class="st30" points="4.8,1.9 3.6,1.9 4.3,0.9 5.5,0.9 			"/>
			<polygon class="st22" points="6.1,1.9 4.8,1.9 5.5,0.9 6.7,0.9 			"/>
			<polygon class="st1" points="7.3,1.9 6.1,1.9 6.7,0.9 8,0.9 			"/>
			<polygon class="st56" points="8.5,1.9 7.3,1.9 8,0.9 9.2,0.9 			"/>
			<polygon class="st26" points="9.7,1.9 8.5,1.9 9.2,0.9 10.4,0.9 			"/>
			<polygon class="st54" points="11,1.9 9.7,1.9 10.4,0.9 11.6,0.9 			"/>
			<polygon class="st31" points="12.2,1.9 11,1.9 11.6,0.9 12.9,0.9 			"/>
			<polygon class="st31" points="13.4,1.9 12.2,1.9 12.9,0.9 14.1,0.9 			"/>
			<polygon class="st31" points="14.6,1.9 13.4,1.9 14.1,0.9 15.3,0.9 			"/>
			<polygon class="st31" points="15.9,1.9 14.6,1.9 15.3,0.9 16.5,0.9 			"/>
			<polygon class="st31" points="17.1,1.9 15.9,1.9 16.5,0.9 17.8,0.9 			"/>
			<polygon class="st54" points="18.3,1.9 17.1,1.9 17.8,0.9 19,0.9 			"/>
			<polygon class="st26" points="19.5,1.9 18.3,1.9 19,0.9 20.2,0.9 			"/>
			<polygon class="st31" points="20.8,1.9 19.5,1.9 20.2,0.9 21.4,0.9 			"/>
			<polygon class="st31" points="22,1.9 20.8,1.9 21.4,0.9 22.7,0.9 			"/>
			<polygon class="st31" points="23.2,1.9 22,1.9 22.7,0.9 23.9,0.9 			"/>
			<polygon class="st31" points="24.4,1.9 25,1.1 25,0.9 23.9,0.9 23.2,1.9 			"/>
			<polygon class="st31" points="25,1.9 25,1.1 24.4,1.9 			"/>
			<polygon class="st45" points="0,0.9 0.6,0.9 1.3,0 0,0 0,0.1 			"/>
			<polygon class="st8" points="1.8,0.9 0.6,0.9 1.3,0 2.5,0 			"/>
			<polygon class="st13" points="3.1,0.9 1.8,0.9 2.5,0 3.7,0 			"/>
			<polygon class="st21" points="4.3,0.9 3.1,0.9 3.7,0 4.9,0 			"/>
			<polygon class="st11" points="5.5,0.9 4.3,0.9 4.9,0 6.2,0 			"/>
			<polygon class="st14" points="6.7,0.9 5.5,0.9 6.2,0 7.4,0 			"/>
			<polygon class="st0" points="8,0.9 6.7,0.9 7.4,0 8.6,0 			"/>
			<polygon class="st57" points="9.2,0.9 8,0.9 8.6,0 9.8,0 			"/>
			<polygon class="st31" points="10.4,0.9 9.2,0.9 9.8,0 11.1,0 			"/>
			<polygon class="st31" points="11.6,0.9 10.4,0.9 11.1,0 12.3,0 			"/>
			<polygon class="st31" points="12.9,0.9 11.6,0.9 12.3,0 13.5,0 			"/>
			<polygon class="st31" points="14.1,0.9 12.9,0.9 13.5,0 14.7,0 			"/>
			<polygon class="st31" points="15.3,0.9 14.1,0.9 14.7,0 16,0 			"/>
			<polygon class="st31" points="16.5,0.9 15.3,0.9 16,0 17.2,0 			"/>
			<polygon class="st31" points="17.8,0.9 16.5,0.9 17.2,0 18.4,0 			"/>
			<polygon class="st58" points="19,0.9 17.8,0.9 18.4,0 19.6,0 			"/>
			<polygon class="st58" points="20.2,0.9 19,0.9 19.6,0 20.9,0 			"/>
			<polygon class="st31" points="21.4,0.9 20.2,0.9 20.9,0 22.1,0 			"/>
			<polygon class="st31" points="22.7,0.9 21.4,0.9 22.1,0 23.3,0 			"/>
			<polygon class="st31" points="23.9,0.9 22.7,0.9 23.3,0 24.5,0 			"/>
			<polygon class="st31" points="25,0.9 25,0 24.5,0 23.9,0.9 			"/>
		</g>
	</g>
	
		<radialGradient id="SVGID_1_" cx="12.1369" cy="-3.7368" r="22.5013" gradientTransform="matrix(-1 0 0 -1 25 17)" gradientUnits="userSpaceOnUse">
		<stop  offset="0" style="stop-color:#FFFFFF;stop-opacity:0"/>
		<stop  offset="7.384652e-02" style="stop-color:#DEDFEB;stop-opacity:7.015419e-02"/>
		<stop  offset="0.2169" style="stop-color:#A4A7C7;stop-opacity:0.2061"/>
		<stop  offset="0.36" style="stop-color:#7277A8;stop-opacity:0.342"/>
		<stop  offset="0.4999" style="stop-color:#494F8F;stop-opacity:0.4749"/>
		<stop  offset="0.6359" style="stop-color:#29317B;stop-opacity:0.6041"/>
		<stop  offset="0.7669" style="stop-color:#121B6D;stop-opacity:0.7285"/>
		<stop  offset="0.8907" style="stop-color:#050E65;stop-opacity:0.8462"/>
		<stop  offset="1" style="stop-color:#000962;stop-opacity:0.95"/>
	</radialGradient>
	<rect class="st59" width="25" height="17"/>
</g>
</svg>
